<svg width="62" height="23" viewBox="0 0 62 23" fill="none" xmlns="http://www.w3.org/2000/svg">
<path d="M14.5526 7.42543C14.4318 6.97798 14.2543 6.58381 14.0199 6.2429C13.7855 5.89489 13.4979 5.60014 13.157 5.35867C12.8161 5.11719 12.4254 4.93608 11.9851 4.81534C11.5447 4.6875 11.0618 4.62358 10.5362 4.62358C9.47799 4.62358 8.56179 4.87926 7.78764 5.39062C7.0206 5.90199 6.42756 6.64773 6.00853 7.62784C5.58949 8.60085 5.37997 9.78338 5.37997 11.1754C5.37997 12.5746 5.58239 13.7678 5.98722 14.755C6.39205 15.7422 6.97799 16.495 7.74503 17.0135C8.51208 17.532 9.44247 17.7912 10.5362 17.7912C11.5021 17.7912 12.3189 17.6349 12.9865 17.3224C13.6612 17.0028 14.1726 16.5518 14.5206 15.9695C14.8686 15.3871 15.0426 14.7017 15.0426 13.9134L16.0227 14.0305H10.7173V10.1847H20.1243V13.0717C20.1243 15.0249 19.7088 16.6974 18.8778 18.0895C18.054 19.4815 16.9176 20.5504 15.4688 21.2962C14.027 22.0419 12.3686 22.4148 10.4936 22.4148C8.41264 22.4148 6.58381 21.9638 5.00711 21.0618C3.4304 20.1598 2.20171 18.8743 1.32103 17.2053C0.440344 15.5291 2.76417e-06 13.5405 2.76417e-06 11.2393C2.76417e-06 9.44957 0.266338 7.86222 0.799009 6.47727C1.33168 5.08523 2.07387 3.90625 3.02557 2.94034C3.98438 1.97443 5.09233 1.2429 6.34943 0.745738C7.61364 0.248579 8.97372 -1.19209e-07 10.4297 -1.19209e-07C11.6939 -1.19209e-07 12.8693 0.181108 13.956 0.543324C15.0497 0.90554 16.0156 1.4169 16.8537 2.07742C17.6989 2.73793 18.3842 3.52273 18.9098 4.43182C19.4354 5.34091 19.7621 6.33878 19.8899 7.42543H14.5526ZM21.5518 4.58097V0.298295H39.9929V4.58097H33.3771V22.1165H28.1783V4.58097H21.5518ZM55.8905 7.42543C55.7697 6.97798 55.5922 6.58381 55.3578 6.2429C55.1234 5.89489 54.8358 5.60014 54.4949 5.35867C54.1539 5.11719 53.7633 4.93608 53.323 4.81534C52.8826 4.6875 52.3997 4.62358 51.8741 4.62358C50.8159 4.62358 49.8997 4.87926 49.1255 5.39062C48.3585 5.90199 47.7655 6.64773 47.3464 7.62784C46.9274 8.60085 46.7179 9.78338 46.7179 11.1754C46.7179 12.5746 46.9203 13.7678 47.3251 14.755C47.7299 15.7422 48.3159 16.495 49.0829 17.0135C49.85 17.532 50.7804 17.7912 51.8741 17.7912C52.84 17.7912 53.6568 17.6349 54.3244 17.3224C54.9991 17.0028 55.5105 16.5518 55.8585 15.9695C56.2065 15.3871 56.3805 14.7017 56.3805 13.9134L57.3606 14.0305H52.0552V10.1847H61.4622V13.0717C61.4622 15.0249 61.0467 16.6974 60.2157 18.0895C59.3919 19.4815 58.2555 20.5504 56.8066 21.2962C55.3649 22.0419 53.7065 22.4148 51.8315 22.4148C49.7505 22.4148 47.9217 21.9638 46.345 21.0618C44.7683 20.1598 43.5396 18.8743 42.6589 17.2053C41.7782 15.5291 41.3379 13.5405 41.3379 11.2393C41.3379 9.44957 41.6042 7.86222 42.1369 6.47727C42.6696 5.08523 43.4118 3.90625 44.3635 2.94034C45.3223 1.97443 46.4302 1.2429 47.6873 0.745738C48.9515 0.248579 50.3116 -1.19209e-07 51.7676 -1.19209e-07C53.0318 -1.19209e-07 54.2072 0.181108 55.2939 0.543324C56.3876 0.90554 57.3535 1.4169 58.1916 2.07742C59.0368 2.73793 59.7221 3.52273 60.2477 4.43182C60.7733 5.34091 61.1 6.33878 61.2278 7.42543H55.8905Z" fill="url(#paint0_linear_1_18)" fill-opacity="0.6"/>
<defs>
<linearGradient id="paint0_linear_1_18" x1="61.0831" y1="-10.8835" x2="61.0831" y2="36.1165" gradientUnits="userSpaceOnUse">
<stop stop-color="#032E15"/>
<stop offset="1" stop-color="#016630"/>
</linearGradient>
</defs>
</svg>
